<?xml version="1.0" encoding="iso-8859-1"?>
<!-- Uploaded to: SVG Repo, www.svgrepo.com, Generator: SVG Repo Mixer Tools -->
<svg height="800px" width="800px" version="1.1" id="Layer_1" xmlns="http://www.w3.org/2000/svg" xmlns:xlink="http://www.w3.org/1999/xlink" 
	 viewBox="0 0 299.35 299.35" xml:space="preserve">
<g>
	<g id="label-hang-tag-red-information_1_">
		<path style="fill:#F8CF26;" d="M186.376,92.245l-46.509,46.522l-6.646-6.644l46.509-46.522L186.376,92.245z"/>
		<path style="fill:#F78B28;" d="M98.676,141.313v75.05h71.859L292.704,93.15l-72.409-73.551L98.676,141.313z M123.25,128.791
			l53.158-53.163c1.837-1.837,4.807-1.837,6.644,0l13.293,13.293c0.883,0.883,1.377,2.077,1.377,3.322
			c0,1.245-0.493,2.443-1.377,3.322l-53.158,53.158c-0.916,0.916-2.119,1.377-3.322,1.377s-2.406-0.46-3.322-1.377l-13.288-13.288
			C121.418,133.598,121.418,130.628,123.25,128.791z M176.413,142.079l-6.644-6.644l36.548-36.548l6.644,6.644L176.413,142.079z
			 M219.605,112.176l6.644,6.644l-23.255,23.259l-6.644-6.644L219.605,112.176z M143.188,195.242
			c-3.548,3.548-8.265,5.507-13.288,5.507c-5.018,0-9.736-1.955-13.288-5.507c-3.552-3.548-5.507-8.27-5.507-13.288
			s1.955-9.741,5.507-13.293s8.27-5.502,13.288-5.502c5.018,0,9.741,1.955,13.288,5.502c3.552,3.548,5.507,8.27,5.507,13.293
			S146.74,191.689,143.188,195.242z M146.514,158.694l16.61-16.615l6.644,6.644l-16.61,16.615L146.514,158.694z M166.447,178.626
			l-6.644-6.644l29.903-29.903l6.644,6.644L166.447,178.626z M179.735,191.915l-6.644-6.644l13.288-13.288l6.644,6.644
			L179.735,191.915z M199.672,171.982l-6.644-6.644l19.932-19.937l6.644,6.644L199.672,171.982z M226.249,145.401l-6.644-6.644
			l13.293-13.293l6.644,6.644L226.249,145.401z M223.068,35.617l53.163,53.158c0.883,0.883,1.377,2.077,1.377,3.322
			c0,1.245-0.493,2.443-1.377,3.322l-26.859,26.859c-0.916,0.916-2.119,1.377-3.322,1.377s-2.406-0.46-3.322-1.377L189.565,69.12
			c-0.883-0.883-1.377-2.077-1.377-3.322c0-1.245,0.493-2.443,1.377-3.322l26.859-26.859
			C218.256,33.785,221.231,33.785,223.068,35.617z"/>
		<path style="fill:#3ADDBE;" d="M266.266,92.104l-20.214,20.214l-46.519-46.519l20.214-20.214L266.266,92.104z"/>
		<path style="fill:#F8CF26;" d="M129.899,172.551c-2.509,0-4.868,0.977-6.644,2.749c-1.776,1.776-2.754,4.135-2.754,6.649
			s0.977,4.868,2.754,6.644c3.552,3.552,9.736,3.552,13.288,0c1.776-1.776,2.754-4.135,2.754-6.644s-0.977-4.873-2.754-6.649
			C134.767,173.528,132.408,172.551,129.899,172.551z"/>
		<path d="M297.972,84.222L218.228,4.478c-1.837-1.837-4.807-1.833-6.644,0L85.265,131.347c-0.879,0.879-0.686,2.072-0.686,3.322
			v77.897c-4.699,5.098-14.458,5.056-19.688-0.169l-9.736-9.398c-8.956-8.956-23.701-8.956-32.662,0
			c-4.342,4.337-6.813,10.107-6.813,16.244c0,6.137,2.345,11.907,6.682,16.244l25.82,25.844c5.291,5.291,5.281,13.904-0.009,19.199
			l-2.354,2.349c-5.296,5.291-13.909,5.291-19.204,0l-19.97-19.97L0,269.559l19.97,19.97c4.478,4.478,10.361,6.719,16.244,6.719
			s11.766-2.241,16.244-6.719l2.349-2.349c8.956-8.956,8.956-23.532,0-32.488l-25.844-25.844c-5.291-5.291-5.291-13.904,0-19.199
			c5.296-5.291,13.904-5.291,19.199,0l9.393,10.305c8.876,8.876,23.259,5.812,32.248,1.114h77.977c1.25,0,2.443-1.405,3.322-2.288
			l126.87-127.462C299.809,89.48,299.809,86.055,297.972,84.222z M165.836,211.669H93.977v-75.054l121.62-122.17l72.752,74.007
			L165.836,211.669z"/>
		<path d="M125.2,158.454c-5.018,0-9.736,1.955-13.288,5.502c-3.552,3.548-5.507,8.27-5.507,13.293s1.955,9.741,5.507,13.288
			c3.552,3.552,8.27,5.507,13.288,5.507c5.023,0,9.741-1.959,13.288-5.507c3.552-3.548,5.507-8.27,5.507-13.288
			s-1.955-9.741-5.507-13.293C134.941,160.409,130.219,158.454,125.2,158.454z M131.845,183.894c-3.552,3.552-9.736,3.552-13.288,0
			c-1.776-1.776-2.754-4.135-2.754-6.644s0.977-4.873,2.754-6.649c1.776-1.771,4.135-2.749,6.644-2.749s4.868,0.977,6.644,2.749
			c1.776,1.776,2.754,4.135,2.754,6.649C134.598,179.764,133.621,182.122,131.845,183.894z"/>
		<path d="M165.071,144.025l-16.614,16.616l-6.646-6.645l16.614-16.616L165.071,144.025z M191.651,144.026l-29.903,29.903
			l-6.645-6.645l29.903-29.903L191.651,144.026z M221.554,114.122l-23.258,23.258l-6.645-6.645l23.258-23.258L221.554,114.122z
			 M188.325,173.928l-13.29,13.29l-6.645-6.645l13.29-13.29L188.325,173.928z M214.91,147.35l-19.935,19.935l-6.645-6.645
			l19.935-19.935L214.91,147.35z M234.849,127.41l-13.293,13.293l-6.645-6.645l13.293-13.293L234.849,127.41z M208.263,100.833
			l-36.548,36.548l-6.645-6.645l36.548-36.548L208.263,100.833z"/>
		<path d="M184.866,57.777c-0.883,0.883-1.377,2.077-1.377,3.322s0.493,2.443,1.377,3.322l53.163,53.158
			c0.916,0.916,2.119,1.377,3.322,1.377s2.406-0.46,3.322-1.377l26.859-26.859c0.883-0.883,1.377-2.077,1.377-3.322
			c0-1.245-0.493-2.443-1.377-3.322l-53.163-53.158c-1.837-1.837-4.807-1.837-6.644,0L184.866,57.777z M261.565,87.403
			l-20.214,20.214l-46.518-46.514l20.214-20.214L261.565,87.403z"/>
		<path d="M131.845,144.024c0.916,0.916,2.119,1.377,3.322,1.377s2.406-0.46,3.322-1.377l53.163-53.158
			c0.883-0.883,1.377-2.077,1.377-3.322c0-1.245-0.493-2.443-1.377-3.322l-13.293-13.293c-1.837-1.837-4.807-1.837-6.644,0
			l-53.163,53.163c-1.837,1.837-1.837,4.807,0,6.644L131.845,144.024z M175.036,80.895l6.649,6.649l-46.518,46.514l-6.644-6.644
			L175.036,80.895z"/>
	</g>
</g>
</svg>